<?xml version="1.0" encoding="UTF-8"?>
<svg version="1.1" xmlns="http://www.w3.org/2000/svg" width="2388" height="1791">
<path d="M0 0 C-10.7620225 6.11898108 -21.60904254 12.04391974 -32.5625 17.8125 C-34.05678625 18.60144084 -35.55100733 19.3905051 -37.04516602 20.1796875 C-47.31920446 25.60271695 -57.6117822 30.98988164 -67.91796875 36.3515625 C-72.70424916 38.84255675 -77.47813672 41.35653074 -82.25 43.875 C-103.98092725 55.32431016 -125.84331613 66.51353921 -147.72387695 77.67333984 C-157.58748666 82.70420277 -167.44922503 87.73853368 -177.30078125 92.79296875 C-178.64591293 93.48305023 -178.64591293 93.48305023 -180.01821899 94.18707275 C-181.78986058 95.09599928 -183.56149762 96.00493469 -185.33312988 96.91387939 C-210.36409025 109.7555188 -210.36409025 109.7555188 -222.88647461 115.92480469 C-228.57194302 118.73778836 -234.18405892 121.67566944 -239.7890625 124.64453125 C-251.36161527 130.76571438 -263.08561398 136.57531865 -274.81152344 142.39550781 C-284.13319134 147.02551829 -293.43903883 151.66781347 -302.625 156.5625 C-311.65250622 161.36192126 -320.78988595 165.93530042 -329.9375 170.5 C-330.7032132 170.88213654 -331.46892639 171.26427307 -332.25784302 171.6579895 C-338.64561567 174.84483064 -345.03597888 178.02646511 -351.4263916 181.20800781 C-356.21191308 183.59076003 -360.99652986 185.97531262 -365.78005981 188.36206055 C-367.97158558 189.45467347 -370.16433405 190.54480085 -372.35717773 191.63476562 C-379.44668169 195.16673629 -386.48749393 198.7725724 -393.48168945 202.48974609 C-407.15450348 209.73768049 -421.03565492 216.58144766 -434.88122725 223.4913106 C-438.87291309 225.48397809 -442.86342819 227.47898752 -446.8540802 229.47372437 C-454.39843222 233.24435715 -461.94379859 237.01295532 -469.48955089 240.78078496 C-478.02686989 245.04385652 -486.563056 249.30919412 -495.09914243 253.57473302 C-509.71687596 260.87926908 -524.3353769 268.18226712 -538.95498657 275.48304749 C-546.09074743 279.04664853 -553.22543356 282.61239073 -560.35930049 286.17978168 C-565.55844642 288.77956124 -570.75886363 291.37678357 -575.96020508 293.97216797 C-584.74618835 298.35704079 -593.53119195 302.74387199 -602.3156023 307.13189507 C-607.58950953 309.7662409 -612.86379048 312.39983279 -618.13891602 315.03173828 C-623.3000471 317.60681054 -628.46015466 320.1839236 -633.61960411 322.76236343 C-635.56009309 323.73169775 -637.50092842 324.70033911 -639.44214821 325.66820908 C-651.39594852 331.62889275 -663.26393083 337.72775771 -675.06767464 343.9801445 C-678.89692588 346.00117212 -682.75236553 347.9700467 -686.61328125 349.9296875 C-688.2152541 350.74641567 -689.81713923 351.56331591 -691.41894531 352.38037109 C-692.61855896 352.99171906 -692.61855896 352.99171906 -693.84240723 353.61541748 C-706.06650775 359.84889321 -718.25500528 366.11836413 -730.26098633 372.76513672 C-737.27532274 376.63912347 -744.37670479 380.330755 -751.5 384 C-760.59185452 388.68666112 -769.62121855 393.46444828 -778.58422852 398.39282227 C-785.40744105 402.14259354 -792.26796939 405.81924047 -799.13949585 409.47946167 C-811.57246464 416.10417422 -823.88171927 422.92807997 -836.10595703 429.93115234 C-837.38603107 430.65352462 -838.68534073 431.34267036 -840 432 C-838.9275 432.350625 -837.855 432.70125 -836.75 433.0625 C-833.06735282 434.64290729 -831.58954881 436.51340679 -829.7265625 439.98828125 C-826.3986899 449.20255216 -827.6094412 460.60652042 -828.5 470.25 C-829.57842251 482.04921095 -828.45543252 492.48285221 -826 504 C-822.44712829 488.64358179 -819.21087561 473.24517653 -817.77368164 457.52441406 C-817.66334595 456.33283691 -817.66334595 456.33283691 -817.55078125 455.1171875 C-817.49317627 454.40933105 -817.43557129 453.70147461 -817.3762207 452.97216797 C-816.64246409 449.12577865 -814.97890393 447.53523739 -812 445 C-807.72975971 443.36571051 -804.83586935 443.65946064 -800.625 445.375 C-794.93137948 451.06862052 -795.68976996 460.24585069 -795.5 467.875 C-795.24424619 475.39680112 -794.8085708 482.66036316 -793 490 C-784.0344742 473.20665581 -784.0344742 473.20665581 -779 455 C-778.42077613 451.35460944 -778.00265182 450.00378831 -775.8125 446.875 C-772.34396087 444.56264058 -770.1674042 444 -766 444 C-762.91254484 445.10682355 -760.76811791 445.89167761 -758.87109375 448.62890625 C-757.65107748 451.94975772 -757.5337389 455.25112998 -757.375 458.75 C-757.31699219 459.79607422 -757.31699219 459.79607422 -757.2578125 460.86328125 C-757.16401376 462.57510818 -757.08093826 464.28751682 -757 466 C-744.68006496 466 -734.91246774 457.77385108 -725.41601562 450.73291016 C-714.08250852 442.52533949 -702.20418958 436.75071586 -688 438 C-683.61049635 439.43588848 -680.33530614 441.97808387 -678 446 C-676.24036789 451.27889634 -676.10880498 456.71488459 -678.375 461.875 C-704.34096078 507.47376039 -783.04966364 528.8286559 -829.4375 544.8125 C-830.20373688 545.07747284 -830.96997375 545.34244568 -831.75942993 545.615448 C-833.91971649 546.36013191 -836.08229978 547.09760939 -838.24609375 547.83203125 C-839.48029053 548.25202393 -840.7144873 548.6720166 -841.98608398 549.10473633 C-845 550 -845 550 -848 550 C-848.20625 550.680625 -848.4125 551.36125 -848.625 552.0625 C-852.30039923 559.91448927 -858.42825868 564.11638741 -866 568 C-873.42864008 570.47621336 -881.15966459 569.78646465 -888.1875 566.5 C-889.06792969 566.0359375 -889.94835938 565.571875 -890.85546875 565.09375 C-892.89571902 563.84855368 -892.89571902 563.84855368 -895 564 C-894.855625 565.27875 -894.71125 566.5575 -894.5625 567.875 C-894.37477379 569.58330849 -894.18728652 571.29164325 -894 573 C-893.90460937 573.83917969 -893.80921875 574.67835938 -893.7109375 575.54296875 C-893.62070313 576.37441406 -893.53046875 577.20585938 -893.4375 578.0625 C-893.35371094 578.81660156 -893.26992187 579.57070313 -893.18359375 580.34765625 C-892.93729891 583.9058307 -892.97358065 587.43338813 -893 591 C-891.79480713 590.51313721 -890.58961426 590.02627441 -889.34790039 589.5246582 C-877.10039216 584.59219901 -864.79527911 579.83591217 -852.4375 575.1875 C-850.49640655 574.45592568 -848.55532618 573.72431665 -846.61425781 572.99267578 C-796.24015465 554.01987502 -745.73133131 535.43457659 -695.06575012 517.25508118 C-689.44429225 515.23787625 -683.8245038 513.21617577 -678.20701599 511.1879425 C-626.5548523 492.54456059 -574.49400346 475.09914637 -522.40621138 457.7209006 C-518.26843869 456.34038669 -514.13090716 454.95915366 -509.99360329 453.5772354 C-479.35148641 443.34266731 -448.68250466 433.2078023 -417.89096165 423.42932701 C-416.97102389 423.13715105 -416.05108614 422.84497509 -415.10327148 422.54394531 C-414.19916251 422.25679972 -413.29505354 421.96965412 -412.36354733 421.67380714 C-402.37588657 418.49458322 -392.41754076 415.22624455 -382.46005821 411.9539566 C-361.89081153 405.19454356 -341.26455555 398.62670879 -320.61132812 392.12890625 C-307.49692217 388.00209469 -294.38892641 383.85682632 -281.29296875 379.671875 C-280.58551954 379.44581699 -279.87807034 379.21975899 -279.14918327 378.98685074 C-276.26494094 378.0651572 -273.38074101 377.1433311 -270.49657726 376.22139168 C-243.41190441 367.56370555 -216.30132682 358.9952532 -189.15429688 350.53515625 C-187.16626812 349.91559475 -185.1782417 349.29602574 -183.19022369 348.67642975 C-181.85974176 348.26176626 -180.52925164 347.84712904 -179.19875336 347.43251801 C-168.77054145 344.18238567 -158.34837907 340.91332865 -147.9296875 337.6328125 C-147.21403185 337.4074884 -146.4983762 337.18216431 -145.76103401 336.95001221 C-142.85198783 336.03406679 -139.94296417 335.11804986 -137.03395939 334.20197296 C-104.86660342 324.07248577 -72.66816307 314.04654546 -40.44750023 304.08800316 C-28.81811612 300.49362784 -17.19246641 296.88735404 -5.56854439 293.27535629 C34.11595019 280.94503793 73.80572155 268.64976019 113.68786621 256.97058105 C117.15101178 255.95574781 120.61312431 254.93743788 124.07519531 253.91894531 C129.88708556 252.2110719 135.70248789 250.51570123 141.52090454 248.8302002 C143.69121498 248.20038982 145.86065289 247.56756383 148.02914429 246.93151855 C150.98155228 246.06696875 153.93735402 245.21525675 156.89453125 244.3671875 C157.76441681 244.10986847 158.63430237 243.85254944 159.5305481 243.58743286 C160.32975677 243.36119232 161.12896545 243.13495178 161.95239258 242.90185547 C162.986903 242.60237503 162.986903 242.60237503 164.04231262 242.29684448 C166.29781467 241.95484231 167.84272912 242.31298498 170 243 C154.34891081 249.43958637 138.49331299 255.26046208 122.56412888 260.9697113 C120.53092847 261.69882162 118.4981944 262.42921765 116.46560669 263.16003418 C95.01205248 270.87362294 73.537864 278.52472182 52 286 C51.08587341 286.31739136 50.17174683 286.63478271 49.22991943 286.96179199 C35.10117552 291.86659672 20.96705097 296.75579066 6.83105469 301.63964844 C1.22559842 303.57628935 -4.37935304 305.51438596 -9.9841156 307.45303345 C-58.43995829 324.21308105 -106.916294 340.9141078 -155.45553589 357.43122864 C-163.89637297 360.30392819 -172.33388238 363.18634543 -180.77124023 366.06924438 C-201.20416023 373.05042662 -221.64364225 380.01226866 -242.08587646 386.96612549 C-247.72661108 388.88522514 -253.36652326 390.80670902 -259.00549316 392.73098755 C-330.39554266 417.09068632 -401.90312139 441.09755181 -473.59375 464.55792236 C-480.71931159 466.88976475 -487.84399622 469.22428461 -494.96875 471.55859375 C-495.64246958 471.77931675 -496.31618916 472.00003975 -497.01032448 472.22745132 C-536.76821687 485.252924 -576.49254243 498.31669762 -615.96594238 512.18441772 C-622.08241222 514.331885 -628.2052504 516.4602721 -634.33203125 518.578125 C-660.11285608 527.49835398 -685.76149479 536.76241556 -711.38423157 546.12628174 C-719.50502596 549.09297378 -727.63161327 552.04330424 -735.76171875 554.984375 C-781.85886208 571.66812978 -827.72794051 588.94492277 -873.54296875 606.38671875 C-874.87785843 606.89454391 -874.87785843 606.89454391 -876.23971558 607.41262817 C-877.06190582 607.72594086 -877.88409607 608.03925354 -878.73120117 608.36206055 C-879.8584108 608.79063858 -879.8584108 608.79063858 -881.00839233 609.22787476 C-882.6516238 609.86493823 -884.27992881 610.54036177 -885.90356445 611.22583008 C-888 612 -888 612 -891 612 C-890.92483154 612.82346924 -890.84966309 613.64693848 -890.7722168 614.49536133 C-887.3759576 652.20847084 -884.64375561 690.13107603 -884 728 C-883.97808594 729.27794434 -883.95617188 730.55588867 -883.93359375 731.87255859 C-882.59936591 819.20413512 -882.59936591 819.20413512 -902.3125 845.3125 C-907.55025174 850.55025174 -912.80156933 853.58838915 -920.1875 854.3125 C-927.33967065 853.7262565 -933.40064914 850.7112409 -938.25390625 845.3984375 C-950.13534689 829.07806937 -955.30970926 807.52438048 -959 788 C-959.22558594 786.89398437 -959.45117188 785.78796875 -959.68359375 784.6484375 C-961.06672561 776.80751069 -961.23242946 769.01064514 -961.3125 761.0625 C-961.33022461 759.98347412 -961.34794922 758.90444824 -961.36621094 757.79272461 C-961.35978973 750.92685245 -960.99696378 745.44095841 -956.3125 740.0625 C-952.88837216 738.48925207 -949.65393422 738.32576214 -946 739 C-943.1899654 740.79363911 -941.49059532 742.01880935 -940 745 C-939.88068218 747.05112135 -939.820764 749.10581194 -939.7890625 751.16015625 C-939.76303955 752.42029541 -939.7370166 753.68043457 -939.71020508 754.97875977 C-939.69034042 755.97904709 -939.69034042 755.97904709 -939.67007446 756.99954224 C-939.14722986 780.9289752 -936.15616433 812.35312032 -921 832 C-907.87150462 820.34880877 -907.58888465 794.51388097 -906.58001709 777.86904907 C-905.98253207 767.11906544 -905.76013884 756.39091955 -905.75 745.625 C-905.74832825 744.66788116 -905.74665649 743.71076233 -905.74493408 742.72463989 C-905.74310509 724.76963224 -906.45471567 706.86668128 -907.375 688.9375 C-907.43812378 687.70614319 -907.50124756 686.47478638 -907.56628418 685.20611572 C-908.34006198 670.36479968 -909.26013002 655.53758351 -910.37142944 640.71751404 C-910.85030472 634.12951978 -911.12134756 627.6054694 -911 621 C-911.68626465 621.27263672 -912.3725293 621.54527344 -913.07958984 621.82617188 C-916.17667796 623.05430036 -919.27579996 624.27721136 -922.375 625.5 C-923.45523438 625.92925781 -924.53546875 626.35851562 -925.6484375 626.80078125 C-926.6796875 627.20683594 -927.7109375 627.61289062 -928.7734375 628.03125 C-930.20308838 628.59682617 -930.20308838 628.59682617 -931.66162109 629.17382812 C-934 630 -934 630 -936 630 C-935.34 631.0725 -934.68 632.145 -934 633.25 C-930.82930982 639.72824468 -930.77891516 646.18349191 -932.96484375 653.015625 C-936.75944882 661.41875042 -942.59989221 667.54471886 -949 674 C-949.6703125 674.71929688 -950.340625 675.43859375 -951.03125 676.1796875 C-984.15727968 711.1304561 -1037.08208113 733.40735226 -1079.8125 754.41333008 C-1084.94512037 756.94213401 -1090.0343139 759.53615396 -1095.08705139 762.22021484 C-1104.09788356 767.00618643 -1113.18251589 771.63368599 -1122.3125 776.1875 C-1122.94546556 776.50325989 -1123.57843113 776.81901978 -1124.23057747 777.14434814 C-1129.48167326 779.76289075 -1134.73537001 782.37619969 -1139.98913574 784.98937988 C-1144.55643976 787.26138419 -1149.12277752 789.53531312 -1153.6875 791.8125 C-1154.32530396 792.13064163 -1154.96310791 792.44878326 -1155.62023926 792.77656555 C-1162.81034978 796.36606617 -1169.97254463 799.99717427 -1177.0625 803.78125 C-1186.08462713 808.59076065 -1195.22754569 813.15384736 -1204.375 817.71875 C-1205.16341278 818.11223633 -1205.95182556 818.50572266 -1206.76412964 818.91113281 C-1213.3407672 822.19240147 -1219.91999425 825.46846641 -1226.49926758 828.7444458 C-1232.20900641 831.58772141 -1237.91780278 834.43287582 -1243.625 837.28125 C-1244.40652435 837.67125183 -1245.18804871 838.06125366 -1245.99325562 838.46307373 C-1256.83493068 843.877035 -1267.60963554 849.39718538 -1278.30175781 855.10180664 C-1282.86812478 857.51693949 -1287.51185119 859.77854513 -1292.1484375 862.0546875 C-1297.80342461 864.85323061 -1303.38964826 867.77278488 -1308.96875 870.71875 C-1318.44147058 875.72052884 -1327.96223012 880.62367639 -1337.5 885.5 C-1340.94165752 887.26122809 -1344.38297327 889.02312323 -1347.82421875 890.78515625 C-1348.68363571 891.22509415 -1349.54305267 891.66503204 -1350.42851257 892.11830139 C-1355.90176264 894.92131766 -1361.36925922 897.73521694 -1366.83203125 900.55859375 C-1395.9659068 915.61053361 -1425.18263551 930.56140378 -1454.859375 944.51953125 C-1457.91757375 945.96114484 -1460.97170765 947.41102741 -1464.02496338 948.86306763 C-1484.9172172 958.79768511 -1505.88901462 968.53880582 -1527 978 C-1527.68495544 978.30723999 -1528.36991089 978.61447998 -1529.07562256 978.93103027 C-1545.2028892 986.16109668 -1561.39165731 993.2441154 -1577.68612671 1000.08984375 C-1579.192533 1000.7230744 -1580.69813205 1001.35822998 -1582.20278931 1001.99560547 C-1590.21096246 1005.38220136 -1598.2574154 1008.5345852 -1606.5 1011.30859375 C-1607.57616577 1011.67272118 -1607.57616577 1011.67272118 -1608.67407227 1012.04420471 C-1619.55330908 1015.61633739 -1631.65312528 1018.87915271 -1642.5625 1013.875 C-1646.60958904 1011.52952794 -1649.03754119 1009.35153911 -1651 1005 C-1652.9010795 997.39568199 -1651.40779582 991.2217117 -1647.54296875 984.4453125 C-1638.94416173 971.81874184 -1626.96139298 961.33251541 -1615 952 C-1613.88353611 951.09606779 -1612.76906506 950.18967045 -1611.65625 949.28125 C-1546.00447623 895.83483115 -1468.9338537 852.76451043 -1393.8671875 814.0390625 C-1388.90373868 811.47837413 -1383.96323584 808.87541731 -1379.0234375 806.26953125 C-1369.29537868 801.14231849 -1359.53497733 796.08018247 -1349.75 791.0625 C-1348.87792908 790.6152356 -1348.00585815 790.16797119 -1347.10736084 789.70715332 C-1330.20525884 781.04924442 -1313.17362697 772.67516494 -1296.0723114 764.41902161 C-1290.62859544 761.79066437 -1285.19291614 759.14630792 -1279.76171875 756.4921875 C-1262.5812602 748.1009932 -1245.33749995 739.88092649 -1227.96087646 731.90167236 C-1225.0834018 730.57851947 -1222.20826851 729.25030873 -1219.33294678 727.92248535 C-1200.28925039 719.12912113 -1181.21974147 710.40322277 -1162 702 C-1161.11654907 701.61370422 -1160.23309814 701.22740845 -1159.32287598 700.82940674 C-1129.40562981 687.75462448 -1099.41409064 674.86741779 -1069.30957031 662.22998047 C-1063.93093666 659.97187677 -1058.55505048 657.70728273 -1053.1796875 655.44140625 C-1025.9530209 643.96640613 -1025.9530209 643.96640613 -1014 639 C-1082.07655315 640.23987282 -1148.82155906 650.97344927 -1215.69921875 662.98046875 C-1216.37611252 663.10198366 -1217.05300629 663.22349857 -1217.75041199 663.34869576 C-1221.11700146 663.95321554 -1224.48351667 664.55814858 -1227.85003662 665.16305542 C-1228.50556267 665.28082714 -1229.16108871 665.39859886 -1229.83647919 665.51993942 C-1231.80297502 665.87328851 -1233.76943803 666.2268202 -1235.73590088 666.58035278 C-1251.28866992 669.36947991 -1266.83634006 672.03507876 -1282.5 674.125 C-1283.22128082 674.22182068 -1283.94256165 674.31864136 -1284.68569946 674.418396 C-1342.08015621 682.02041084 -1342.08015621 682.02041084 -1360 669 C-1365.27780459 664.21637187 -1368.52633875 659.74413097 -1369.24609375 652.53515625 C-1369.83155678 639.88560661 -1364.03064511 631.62400017 -1355.81640625 622.6015625 C-1349.63217121 616.16345903 -1342.83526214 610.72433872 -1335.74951172 605.33496094 C-1334.10658862 604.0813322 -1332.47663602 602.81075674 -1330.84765625 601.5390625 C-1240.44875006 531.08947356 -1240.44875006 531.08947356 -1191.74609375 536.23828125 C-1184.75481927 537.44199633 -1178.94618085 540.53188501 -1174.32421875 545.97265625 C-1170.43491636 552.00929179 -1169.89694783 557.98773977 -1171 565 C-1173.2385735 572.27095722 -1176.29130356 579.90941964 -1182.25 584.875 C-1185.93161184 586.38111393 -1189.07859954 586.73674797 -1193 586 C-1195.8100346 584.20636089 -1197.50940468 582.98119065 -1199 580 C-1199.83825925 573.29392598 -1198.15134522 569.85116974 -1194.41015625 564.296875 C-1193.08321059 562.13553415 -1192.44839039 560.47466087 -1192 558 C-1235.1247378 554.51595476 -1279.83854152 589.94949464 -1312.13330078 614.57861328 C-1313.88460111 615.91213022 -1315.6424364 617.23646916 -1317.40234375 618.55859375 C-1323.23781467 622.96429117 -1328.92187708 627.523622 -1334.5 632.25 C-1335.07572754 632.73339844 -1335.65145508 633.21679688 -1336.24462891 633.71484375 C-1343.24072703 639.67317112 -1343.24072703 639.67317112 -1346.8125 647.875 C-1346.874375 648.90625 -1346.93625 649.9375 -1347 651 C-1314.81190385 669.05673686 -1248.73999842 647.05534543 -1214.60546875 640.8671875 C-1056.00056903 612.13097053 -1056.00056903 612.13097053 -989.6171875 617.640625 C-968.79409671 619.26917194 -953.99012173 616.63645157 -935.21679688 607.52539062 C-930.61309889 605.34233773 -925.89413269 603.53419166 -921.125 601.75 C-919.71036309 601.20461258 -918.29622223 600.6579349 -916.8828125 600.109375 C-915.93148437 599.74328125 -914.98015625 599.3771875 -914 599 C-914.0721875 597.82824219 -914.144375 596.65648437 -914.21875 595.44921875 C-914.31266891 593.86198915 -914.40640922 592.27474898 -914.5 590.6875 C-914.54769531 589.92115234 -914.59539063 589.15480469 -914.64453125 588.36523438 C-914.90001605 583.96724602 -915.02528562 579.59273382 -915.01367188 575.18676758 C-915.011698 574.21105301 -915.00972412 573.23533844 -915.00769043 572.23005676 C-915.00388367 571.12617867 -915.00388367 571.12617867 -915 570 C-915.62683182 570.16554886 -916.25366364 570.33109772 -916.89949036 570.50166321 C-957.1360455 581.12086144 -997.44217264 591.4560578 -1037.7906456 601.64162827 C-1041.44211831 602.56366617 -1045.0933525 603.48664349 -1048.74453735 604.40982056 C-1054.54970996 605.87731969 -1060.35557898 607.3420309 -1066.16202927 608.80446625 C-1068.32521929 609.34959394 -1070.48821971 609.89547461 -1072.65102005 610.4421463 C-1075.63061554 611.1949664 -1078.6109694 611.94470556 -1081.59155273 612.69360352 C-1082.46224805 612.91423619 -1083.33294336 613.13486887 -1084.23002338 613.36218739 C-1094.38378875 615.90477868 -1105.49007482 618.62832306 -1115 613 C-1118.37978381 609.44233283 -1119.82113163 606.78868375 -1120.3125 601.875 C-1119.21374213 588.25040237 -1107.43008316 577.36350671 -1097.578125 568.92578125 C-1094.74114497 566.58821043 -1091.87326617 564.29280836 -1089 562 C-1087.86373465 561.07395704 -1086.72835261 560.14682944 -1085.59375 559.21875 C-1045.9967549 526.96588189 -1001.63047587 500.29799594 -957.72480774 474.38879395 C-945.89802987 467.41920379 -945.89802987 467.41920379 -934.19702148 460.24267578 C-932 459 -932 459 -930 459 C-930.22026855 457.79432373 -930.44053711 456.58864746 -930.66748047 455.34643555 C-949.47058513 352.27030583 -949.47058513 352.27030583 -954 312 C-954.10908691 311.04641602 -954.21817383 310.09283203 -954.33056641 309.11035156 C-955.13521421 301.3325659 -955.21917421 293.56433725 -955.25 285.75 C-955.27078271 284.41406171 -955.29161579 283.07812421 -955.3125 281.7421875 C-955.36879131 267.75379604 -955.36879131 267.75379604 -949.8125 261.5625 C-946.13819195 259.52121775 -943.05346389 259.11777551 -939 260 C-933.39155848 263.17458954 -932.36723686 266.30780733 -930.67404175 272.32385254 C-929.69101502 276.22676284 -928.98933126 280.13304181 -928.37890625 284.109375 C-928.23821213 284.99294174 -928.09751801 285.87650848 -927.95256042 286.78684998 C-927.48074733 289.7733097 -927.0209284 292.76145801 -926.5625 295.75 C-926.39858765 296.80458405 -926.23467529 297.85916809 -926.0657959 298.94570923 C-922.38608996 322.65770121 -919.06919866 346.42291446 -915.75 370.1875 C-915.55693708 371.56792732 -915.55693708 371.56792732 -915.35997391 372.97624207 C-912.05264987 396.62877062 -908.87701962 420.29099739 -906 444 C-905.29977722 443.60731934 -904.59955444 443.21463867 -903.87811279 442.81005859 C-881.24216022 430.11691052 -858.5999007 417.44018191 -835.76171875 405.11328125 C-830.16515607 402.09251091 -824.58120735 399.04902533 -819 396 C-798.05435999 384.56555314 -777.05764499 373.22688984 -756 362 C-755.34239685 361.64939514 -754.6847937 361.29879028 -754.00726318 360.93756104 C-735.60986222 351.13272001 -717.15104636 341.45711133 -698.60412598 331.93811035 C-697.9407019 331.59759644 -697.27727783 331.25708252 -696.59375 330.90625 C-695.94096069 330.5712146 -695.28817139 330.2361792 -694.61560059 329.89099121 C-688.66471834 326.83377104 -682.73717924 323.73266001 -676.8125 320.625 C-668.69873171 316.37250391 -660.53797171 312.22508913 -652.31958008 308.17822266 C-647.39853974 305.74334054 -642.5247479 303.22989653 -637.67348099 300.65950871 C-627.33607895 295.18435254 -616.9186054 289.88538214 -606.453125 284.66015625 C-604.74170243 283.80410627 -603.03033912 282.94793782 -601.31903076 282.09165955 C-597.76346351 280.3131469 -594.20719419 278.53604858 -590.65039062 276.76000977 C-586.16362919 274.51946967 -581.67868458 272.27531977 -577.19421387 270.03019905 C-559.6788602 261.26297519 -542.15083441 252.5454664 -524.44665527 244.16452026 C-520.29514756 242.18855131 -516.16285738 240.17342267 -512.03125 238.15625 C-511.24390472 237.77190796 -510.45655945 237.38756592 -509.64535522 236.99157715 C-508.06758723 236.22096119 -506.48994041 235.45009709 -504.91241455 234.6789856 C-490.8601334 227.81141093 -476.78604724 220.99370766 -462.66357422 214.27148438 C-459.85736797 212.93191314 -457.05518023 211.58422866 -454.25390625 210.234375 C-443.12147274 204.87122544 -431.96428511 199.5658259 -420.77584839 194.32080078 C-420.06606842 193.98806152 -419.35628845 193.65532227 -418.625 193.3125 C-417.91240021 192.97847168 -417.19980042 192.64444336 -416.46560669 192.30029297 C-404.55960149 186.7153337 -392.72213696 180.99815167 -380.90472412 175.22848511 C-370.1107885 169.96149647 -359.26447833 164.834037 -348.35400391 159.81176758 C-339.68447462 155.81058999 -331.08480061 151.67866266 -322.5 147.5 C-311.52645605 142.15893822 -300.50166742 136.95352295 -289.41796875 131.84375 C-281.067838 127.98476302 -272.77417237 124.01820876 -264.5 120 C-255.26815347 115.51807973 -246.00555684 111.11329819 -236.6875 106.8125 C-225.21233583 101.51557474 -213.78698883 96.1190658 -202.375 90.6875 C-186.3323902 83.05326722 -170.27014405 75.46246647 -154.18919373 67.90936279 C-149.38032329 65.65019957 -144.57430383 63.38505125 -139.76953125 61.1171875 C-109.24087245 46.71105917 -78.66770877 32.41566349 -47.78718567 18.77702332 C-47.07237534 18.46130875 -46.357565 18.14559418 -45.62109375 17.8203125 C-44.55788155 17.35078911 -44.55788155 17.35078911 -43.47319031 16.8717804 C-34.10450558 12.72822737 -24.77790428 8.49090354 -15.45263672 4.25073242 C-14.8350499 3.97057281 -14.21746307 3.69041321 -13.5811615 3.40176392 C-11.92525219 2.65057719 -10.27009246 1.89773872 -8.61499023 1.14477539 C-3.40632819 -1.13544273 -3.40632819 -1.13544273 0 0 Z M-860.5625 442.125 C-861.53453369 442.65544922 -862.50656738 443.18589844 -863.50805664 443.73242188 C-873.96340698 449.47398714 -884.24881618 455.49938251 -894.52685547 461.55078125 C-897.67035466 463.39281592 -900.83122118 465.20186125 -904 467 C-903.61354383 491.20620938 -897.38945937 518.53323096 -886 540 C-883.51791453 539.42744532 -881.03989068 538.84227538 -878.5625 538.25 C-877.87478516 538.09273437 -877.18707031 537.93546875 -876.47851562 537.7734375 C-874.29531487 537.24540755 -872.15084104 536.64739538 -870 536 C-869.19908936 535.75983154 -868.39817871 535.51966309 -867.57299805 535.2722168 C-864.3149303 534.0918919 -861.77059088 533.14474431 -859.79272461 530.20654297 C-858.87422025 527.9271634 -858.25309515 525.70405252 -857.6875 523.3125 C-857.45732178 522.44399414 -857.22714355 521.57548828 -856.98999023 520.68066406 C-853.23612711 505.84303302 -850.05626238 490.62971183 -851.62890625 475.30859375 C-852.20267601 469.57229905 -852.16911376 463.82240824 -852.1875 458.0625 C-852.20006836 457.00740234 -852.21263672 455.95230469 -852.22558594 454.86523438 C-852.23553467 448.58957344 -851.60177913 443.07156595 -850 437 C-853.35454027 437 -857.69090827 440.55543434 -860.5625 442.125 Z M-932.546875 483.26171875 C-933.10578934 483.60373322 -933.66470367 483.94574768 -934.24055481 484.29812622 C-935.44799385 485.03749419 -936.65423293 485.77882454 -937.85940552 486.5218811 C-941.05069107 488.48942241 -944.25025777 490.4434092 -947.44921875 492.3984375 C-948.41473915 492.98921837 -948.41473915 492.98921837 -949.39976501 493.5919342 C-955.08277942 497.0639144 -960.81518067 500.44813932 -966.5625 503.8125 C-975.62160485 509.13561333 -984.53279745 514.6598772 -993.38037109 520.32666016 C-996.29605463 522.18911076 -999.22006363 524.03809389 -1002.14453125 525.88671875 C-1013.64138773 533.17250215 -1024.96861804 540.60104179 -1036.00390625 548.56884766 C-1038.06407325 550.04593902 -1040.13867147 551.50032001 -1042.21875 552.94921875 C-1059.54736633 565.02943486 -1076.33773777 577.80728336 -1092 592 C-1087.95723013 593.60979585 -1084.37627113 592.35663562 -1080.35083008 591.30371094 C-1079.57851421 591.10967336 -1078.80619835 590.91563578 -1078.01047897 590.71571827 C-1075.42777573 590.06432408 -1072.84875514 589.3994012 -1070.26953125 588.734375 C-1068.43297146 588.26801883 -1066.59621035 587.80245486 -1064.75926208 587.33763123 C-1059.80301371 586.08081098 -1054.84990644 584.81200226 -1049.89735413 583.54070663 C-1045.79023094 582.48797305 -1041.68136518 581.44213821 -1037.57245445 580.39640713 C-1004.16961588 571.89459423 -970.7993267 563.26420612 -937.453125 554.54296875 C-936.18125839 554.21066757 -934.90939178 553.87836639 -933.59898376 553.53599548 C-928.04826146 552.08104728 -922.5072039 550.6124195 -917 549 C-917.58837515 541.77437 -918.18767842 534.54973004 -918.80032063 527.32611465 C-919.08457429 523.97058212 -919.36528565 520.61483714 -919.63745117 517.25830078 C-919.95339761 513.38489815 -920.28216837 509.51275715 -920.61328125 505.640625 C-920.75410881 503.86332001 -920.75410881 503.86332001 -920.89778137 502.05010986 C-921.56264227 494.45953366 -922.92404433 487.33146637 -925 480 C-928.08034686 480 -929.94132647 481.65778315 -932.546875 483.26171875 Z M-767 485 C-769.64 490.28 -772.28 495.56 -775 501 C-770.85000706 499.61666902 -767.26874514 498.27591057 -763.3828125 496.3984375 C-762.36445312 495.90859375 -761.34609375 495.41875 -760.296875 494.9140625 C-759.25015625 494.40617187 -758.2034375 493.89828125 -757.125 493.375 C-756.05507812 492.859375 -754.98515625 492.34375 -753.8828125 491.8125 C-751.25364318 490.54486479 -748.62611698 489.2739434 -746 488 C-749.88212494 486.95675879 -753.26684216 487.00106686 -757.26953125 487.16015625 C-760 487 -760 487 -767 485 Z M-806 510 C-806.33 511.32 -806.66 512.64 -807 514 C-805.35 513.67 -803.7 513.34 -802 513 C-802 512.34 -802 511.68 -802 511 C-803.32 510.67 -804.64 510.34 -806 510 Z M-973.109375 644.55859375 C-974.01085266 644.93365555 -974.91233032 645.30871735 -975.84112549 645.69514465 C-978.81427277 646.93434649 -981.78206109 648.18588114 -984.75 649.4375 C-986.8420926 650.3123736 -988.93454568 651.18638564 -991.02734375 652.05957031 C-995.30698424 653.84619605 -999.58477754 655.63714385 -1003.86132812 657.43115234 C-1009.32158493 659.71942068 -1014.79077726 661.98517935 -1020.265625 664.23828125 C-1048.61491137 675.91253558 -1076.82026129 687.92296912 -1105 700 C-1105.80308594 700.34417969 -1106.60617187 700.68835938 -1107.43359375 701.04296875 C-1116.63909084 704.99052177 -1125.82697674 708.97755971 -1135 713 C-1136.15677246 713.50699432 -1136.15677246 713.50699432 -1137.33691406 714.02423096 C-1182.58567476 733.86249346 -1227.45134615 754.45038126 -1271.90039062 776.02197266 C-1275.00291234 777.52300091 -1278.11270186 779.00827948 -1281.22460938 780.48974609 C-1297.87877806 788.42848559 -1314.39892068 796.62153402 -1330.89501953 804.88232422 C-1334.64147966 806.7584173 -1338.38976143 808.63083887 -1342.13851166 810.50235081 C-1357.51004726 818.17814017 -1372.85228536 825.88856333 -1388 834 C-1389.73419189 834.92184082 -1389.73419189 834.92184082 -1391.50341797 835.86230469 C-1405.77321272 843.45762237 -1419.92133515 851.25006852 -1433.95849609 859.26660156 C-1437.19317696 861.11009443 -1440.43414772 862.94220054 -1443.67578125 864.7734375 C-1459.24774704 873.5920876 -1474.58997861 882.74005005 -1489.85253906 892.08251953 C-1493.5357536 894.32638914 -1497.23770525 896.53722245 -1500.94458008 898.74169922 C-1517.61217003 908.65686423 -1533.95546799 919.10594157 -1550 930 C-1550.62503418 930.42313477 -1551.25006836 930.84626953 -1551.89404297 931.28222656 C-1572.40250797 945.18784072 -1592.26172945 959.77532494 -1611 976 C-1612.36318359 977.175625 -1612.36318359 977.175625 -1613.75390625 978.375 C-1619.27952044 983.23416607 -1624.24684959 988.38384742 -1629 994 C-1619.69831219 997.46655539 -1604.83182159 988.73676139 -1596.125 985.125 C-1594.72466164 984.5495961 -1593.3242697 983.97432258 -1591.92382812 983.39916992 C-1577.58863712 977.48939504 -1563.37975766 971.29507702 -1549.21606445 964.98693848 C-1546.90427326 963.95736749 -1544.59177878 962.92938572 -1542.27929688 961.90136719 C-1510.89037242 947.93488596 -1479.82199094 933.33340428 -1448.91015625 918.34375 C-1444.23759485 916.07858644 -1439.55771107 913.82968506 -1434.87109375 911.59375 C-1433.69619385 911.03204102 -1432.52129395 910.47033203 -1431.31079102 909.89160156 C-1429.13949799 908.85417 -1426.96696673 907.81932251 -1424.79272461 906.78808594 C-1417.60052685 903.34596168 -1410.54893974 899.67423468 -1403.50534058 895.94122314 C-1393.58610545 890.69881153 -1383.53004332 885.73438801 -1373.47949219 880.75 C-1363.64484571 875.86890365 -1353.86108594 870.91314498 -1344.15802002 865.7749939 C-1335.93433431 861.4233174 -1327.65199354 857.18887509 -1319.36489868 852.95953369 C-1302.04765484 844.12154499 -1302.04765484 844.12154499 -1284.8125 835.125 C-1271.28109164 827.99617989 -1257.55125746 821.24989103 -1243.85473633 814.44580078 C-1242.89024063 813.96568542 -1241.92574493 813.48557007 -1240.93202209 812.99090576 C-1239.14855122 812.10318587 -1237.36426323 811.21710401 -1235.57884216 810.33331299 C-1229.66374675 807.38715218 -1223.81440979 804.32668843 -1217.97363281 801.23681641 C-1209.29360857 796.64987197 -1200.54616443 792.21246289 -1191.75619507 787.84051514 C-1189.21966153 786.57882134 -1186.68452048 785.31436429 -1184.1496582 784.04931641 C-1177.86193442 780.91202448 -1171.57199739 777.77918038 -1165.28210449 774.64624023 C-1159.93291065 771.98163258 -1154.58460983 769.31524688 -1149.23739624 766.64666748 C-1146.77995681 765.42110945 -1144.32129681 764.19802771 -1141.86254883 762.97509766 C-1133.05076278 758.58334811 -1124.29713723 754.0962372 -1115.60087585 749.47946167 C-1108.22129637 745.56429724 -1100.75261184 741.8357364 -1093.26849365 738.12536621 C-1080.9087652 731.99388739 -1068.57253775 725.83131944 -1056.41943359 719.29736328 C-1053.57241296 717.7707167 -1050.71766373 716.25892954 -1047.86328125 714.74609375 C-993.91462209 688.71937648 -993.91462209 688.71937648 -953 647 C-953.07303374 644.82573471 -953.07303374 644.82573471 -954 643 C-960.94111327 639.14382596 -966.37250384 641.69316884 -973.109375 644.55859375 Z " fill="#000000" transform="translate(1983,222)"/>
<path d="M0 0 C2.6668779 2.32276462 2.99570779 3.98313773 3.875 7.4375 C4.01718844 11.48987056 3.5123699 12.88119599 1 16 C-1.52414681 18.61429492 -2.76807058 18.97469861 -6.4375 19.375 C-10.22487861 18.97632857 -12.04719363 18.3622451 -15 16 C-17.56570589 12.57905881 -17.43708054 9.15226516 -17 5 C-15.21820439 2.03034065 -13.65634702 0.41933282 -10.75 -1.4375 C-6.80828028 -2.24376085 -3.68815373 -1.54406436 0 0 Z " fill="#000000" transform="translate(1446,417)"/>
</svg>
